<svg width="8" height="9" viewBox="0 0 8 9" fill="none" xmlns="http://www.w3.org/2000/svg">
<path d="M1.6899 6.98956C2.30281 7.32414 3.10671 7.36042 3.92393 7.12133C4.79519 7.35968 5.60129 7.32564 6.20236 6.98809C6.82638 6.63796 7.19131 5.9836 7.19131 5.07755C7.19131 4.69041 6.99886 4.39653 6.72645 4.16039C6.49624 3.96053 6.1957 3.79101 5.88036 3.63038C6.19422 2.72064 6.02101 1.96709 5.61166 1.43338C5.18603 0.878946 4.51464 0.574707 3.92245 0.574707C3.37098 0.574707 2.63962 0.875987 2.18808 1.42894C1.95861 1.70949 1.79945 2.05813 1.77577 2.46674C1.75726 2.80429 1.83128 3.17219 2.023 3.56526C1.70766 3.62744 1.41083 3.78436 1.17618 3.99533C0.870461 4.27217 0.652832 4.65784 0.652832 5.07755C0.652832 5.99026 1.05404 6.64239 1.6899 6.98956Z" fill="white" stroke="white" stroke-width="0.5"/>
<path d="M1.06445 8.16211H1.24951V8.34717H6.59549V8.16211H6.78055C6.78055 7.60546 6.32901 7.15466 5.77309 7.15466H2.07192C1.51526 7.15466 1.06445 7.60546 1.06445 8.16211Z" fill="white" stroke="white" stroke-width="0.5"/>
</svg>
