<svg width="8" height="10" viewBox="0 0 8 10" fill="none" xmlns="http://www.w3.org/2000/svg">
<path d="M3.92245 7.72061C4.76854 7.72061 5.57909 7.68656 6.17868 7.41786C6.48513 7.28092 6.74273 7.08104 6.92187 6.79012C7.10027 6.50069 7.19131 6.13577 7.19131 5.68497C7.19131 4.79151 6.8323 3.67819 6.25862 2.78695C5.68938 1.90386 4.86995 1.18213 3.92245 1.18213C2.97421 1.18213 2.15476 1.90386 1.58552 2.78695C1.01184 3.67819 0.652832 4.79151 0.652832 5.68497C0.652832 6.13577 0.744625 6.50069 0.923022 6.79012C1.10216 7.08104 1.35975 7.28092 1.66547 7.41786C2.26506 7.68656 3.07636 7.72061 3.92245 7.72061Z" fill="white" stroke="white" stroke-width="0.5"/>
<path d="M1.06445 8.76953H1.24951V8.95459H6.59549V8.76953H6.78055C6.78055 8.21288 6.32901 7.76208 5.77309 7.76208H2.07192C1.51526 7.76208 1.06445 8.21288 1.06445 8.76953Z" fill="white" stroke="white" stroke-width="0.5"/>
</svg>
